<svg width="799" height="1032" viewBox="0 0 799 1032" fill="none" xmlns="http://www.w3.org/2000/svg">
<g filter="url(#filter0_b_178_1971)">
<g filter="url(#filter1_f_178_1971)">
<path d="M183.368 564.425L278.445 254.739L238.443 622.418L205.398 760.443L377.581 884.549L373.523 964L68 747.104L98.7262 729.706L139.888 698.39L156.12 677.512L139.888 689.691L81.9137 725.647L150.903 606.76L183.368 564.425Z" fill="#CAFA19"/>
<path d="M303.374 359.128L366.566 68C368.112 68 371.204 68.5799 371.204 70.8997L375.262 386.384L359.609 435.099L331.202 515.13L290.62 652.575L271.489 705.349L255.256 627.058L303.374 359.128Z" fill="#CAFA19"/>
<path d="M411.206 312.733L425.12 70.8997C426.859 68 434.859 66.9561 436.714 69.7398L570.054 808.577L643.102 734.926L576.432 628.797L553.822 600.961L532.371 259.379L624.55 577.183L707.453 721.007L658.175 683.891L709.192 734.926L731.222 752.324L407.727 964L400.191 825.975L526.574 712.888L411.206 312.733Z" fill="#CAFA19"/>
</g>
<path fill-rule="evenodd" clip-rule="evenodd" d="M321.538 275.449L366.566 68C368.112 68 371.204 68.5799 371.204 70.8997L374.337 314.451L321.538 275.449ZM320.479 280.325L303.375 359.128L297.866 389.799L307.348 396.803C307.664 397.037 307.844 397.387 307.872 397.751L333.27 457.587L333.284 457.596L333.293 457.603L347.814 468.33L359.609 435.099L375.262 386.384L374.41 320.164L320.479 280.325ZM423.886 356.712L485.359 569.934L533.389 605.414L509.327 472.085L483.798 453.227C482.909 452.57 482.721 451.318 483.377 450.43L483.705 449.986C484.361 449.098 485.614 448.909 486.502 449.566L508.149 465.556L436.715 69.7398C434.859 66.9561 426.859 68 425.12 70.8997L411.206 312.733L421.813 349.522L448.378 369.145C448.705 369.387 448.937 369.71 449.067 370.065L449.334 370.201L474.907 430.449C475.339 431.465 474.865 432.64 473.848 433.071L473.34 433.287C472.323 433.718 471.149 433.244 470.718 432.227L445.414 372.614L423.886 356.712ZM547.5 500.283L553.822 600.961L576.432 628.797L586.292 644.493L716.126 740.402L709.192 734.926L658.175 683.891L707.453 721.007L624.55 577.183L617.174 551.751L547.5 500.283ZM615.085 544.55L547.127 494.349L532.372 259.379L615.085 544.55ZM266.289 366.474L278.446 254.739L248.236 353.138L266.289 366.474ZM246.82 357.75L265.72 371.711L265.199 376.493L245.527 361.961L246.82 357.75ZM244.111 366.574L242.946 370.37L264.161 386.041L264.63 381.731L244.111 366.574ZM295.253 404.352L294.383 409.195L319.616 468.64L319.629 468.65L319.639 468.657L341.869 485.078L343.179 481.389L324.737 467.766C324.583 467.653 324.462 467.511 324.374 467.354C324.015 467.248 323.704 466.988 323.547 466.616L297.969 406.359L295.253 404.352ZM491.398 590.879L493.104 596.795L537.791 629.806L536.822 624.433L491.398 590.879ZM535.643 617.904L489.325 583.689L487.432 577.124L534.568 611.943L535.643 617.904ZM605.613 675.249L611.071 683.938L716.6 761.892L719.943 759.704L605.613 675.249ZM724.005 757.046L598.98 664.691L592.925 655.051L727.713 754.62L724.005 757.046ZM712.538 764.55L617.704 694.496L623.561 703.819L708.951 766.897L712.538 764.55ZM704.889 769.555L630.193 714.377L637.011 725.23L700.714 772.287L704.889 769.555ZM696.651 774.945L642.837 735.192L570.055 808.577L543.578 661.87L503.284 632.104L526.574 712.888L470.552 763.017L585.318 847.795L696.651 774.945ZM290.817 594.271L300.853 617.916L299.349 623.012L289.016 598.668C288.988 598.304 288.808 597.954 288.492 597.72L263.801 579.481L264.62 574.92L290.817 594.271ZM294.868 592.166L302.882 611.046L331.202 515.13L334.054 507.095L304.58 485.322C304.426 485.208 304.305 485.067 304.217 484.91C303.858 484.804 303.548 484.543 303.39 484.172L287.599 446.97L265.517 569.924L294.343 591.218C294.66 591.452 294.84 591.802 294.868 592.166ZM261.362 411.763L245.744 555.317L197.179 519.442L235.991 393.022L261.362 411.763ZM195.763 524.055L245.174 560.555L244.654 565.337L194.47 528.266L195.763 524.055ZM193.053 532.879L244.084 570.575L243.615 574.885L191.888 536.674L193.053 532.879ZM280.689 602.271L262.165 588.588L262.903 584.477L284.965 600.773L297.321 629.882L295.355 636.537L281.213 603.22C281.185 602.856 281.006 602.505 280.689 602.271ZM277.162 605.325L261.268 593.584L260.476 597.995L274.187 608.123C274.503 608.357 274.683 608.708 274.711 609.072L291.669 649.023L293.327 643.407L277.162 605.325ZM190.472 541.287L243.045 580.123L242.542 584.748L189.222 545.36L190.472 541.287ZM258.656 608.126L259.578 602.991L270.66 611.177L289.52 655.609L287.704 660.62L268.859 616.224C268.831 615.86 268.651 615.51 268.335 615.276L258.656 608.126ZM400.191 825.975L440.598 789.819L550.194 870.778L407.728 964L400.191 825.975ZM558.432 865.388L554.257 868.12L444.062 786.719L447.623 783.533L558.432 865.388ZM562.494 862.73L451.087 780.434L454.146 777.697L566.081 860.383L562.494 862.73ZM570.143 857.725L457.61 774.597L460.461 772.046L573.486 855.537L570.143 857.725ZM577.548 852.88L463.925 768.946L467.088 766.116L581.256 850.453L577.548 852.88ZM271.489 705.349L285.426 666.903L264.808 618.329L257.759 613.122L255.256 627.058L271.489 705.349ZM238.444 622.418L240.817 600.607L184.934 559.326L183.368 564.425L150.903 606.76L81.9141 725.647L139.888 689.691L156.121 677.512L139.888 698.39L98.7265 729.706L68.0003 747.104L373.523 964L377.581 884.549L205.399 760.443L238.444 622.418ZM186.35 554.714L241.387 595.369L241.972 589.985L187.805 549.972L186.35 554.714ZM501.211 624.914L542.4 655.341L541.188 648.629L499.08 617.524L501.211 624.914ZM337.281 498.003L335.646 502.611L307.285 481.661C307.277 481.656 307.269 481.65 307.262 481.645L289.069 438.785L290.241 432.257L309.242 477.019C309.4 477.391 309.71 477.651 310.069 477.758C310.157 477.915 310.278 478.056 310.432 478.17L337.281 498.003ZM497.007 610.334L540.01 642.1L538.97 636.335L495.177 603.985L497.007 610.334ZM340.278 489.561L338.873 493.52L313.137 474.509L313.128 474.502L313.114 474.492L291.711 424.071L292.913 417.38L315.744 471.167C315.902 471.539 316.212 471.799 316.571 471.906C316.659 472.063 316.781 472.204 316.934 472.318L340.278 489.561ZM263.591 391.279L241.53 374.982L240.279 379.055L263.088 395.904L263.591 391.279ZM262.518 401.142L238.863 383.668L237.407 388.409L261.932 406.525L262.518 401.142ZM346.223 472.813L344.77 476.906L327.441 464.105C327.434 464.1 327.426 464.094 327.418 464.089L302.02 404.254C301.992 403.89 301.812 403.539 301.496 403.306L296.15 399.356L296.969 394.795L303.821 399.857L329.398 460.114C329.556 460.485 329.867 460.746 330.226 460.852C330.314 461.009 330.435 461.15 330.589 461.264L346.223 472.813Z" fill="#CAFA19"/>
</g>
<defs>
<filter id="filter0_b_178_1971" x="64.2" y="64.2" width="670.822" height="903.6" filterUnits="userSpaceOnUse" color-interpolation-filters="sRGB">
<feFlood flood-opacity="0" result="BackgroundImageFix"/>
<feGaussianBlur in="BackgroundImageFix" stdDeviation="1.9"/>
<feComposite in2="SourceAlpha" operator="in" result="effect1_backgroundBlur_178_1971"/>
<feBlend mode="normal" in="SourceGraphic" in2="effect1_backgroundBlur_178_1971" result="shape"/>
</filter>
<filter id="filter1_f_178_1971" x="0.400002" y="0.400002" width="798.422" height="1031.2" filterUnits="userSpaceOnUse" color-interpolation-filters="sRGB">
<feFlood flood-opacity="0" result="BackgroundImageFix"/>
<feBlend mode="normal" in="SourceGraphic" in2="BackgroundImageFix" result="shape"/>
<feGaussianBlur stdDeviation="33.8" result="effect1_foregroundBlur_178_1971"/>
</filter>
</defs>
</svg>
